<?xml version="1.0" encoding="utf-8"?><svg xmlns="http://www.w3.org/2000/svg" xmlns:xlink="http://www.w3.org/1999/xlink">
    <symbol viewBox="0 0 44 44" width="44" height="44" fill="none" id="button-1" xmlns="http://www.w3.org/2000/svg">
        <circle cx="22" cy="22" r="22" fill="var(--key-color)"/>
        <path d="M23.7531 22.8H22.3V13.1672L19.3859 14.2375V12.925L23.5265 11.3703H23.7531V22.8Z" fill="#555770"/>
    </symbol>
    <symbol viewBox="0 0 44 44" width="44" height="44" fill="none" id="button-2" xmlns="http://www.w3.org/2000/svg">
        <circle cx="22" cy="22" r="22" fill="var(--key-color)"/>
        <path d="M26.4562 22.8H19.0031V21.7609L22.9406 17.3859C23.5239 16.7245 23.925 16.188 24.1437 15.7766C24.3677 15.3599 24.4797 14.9302 24.4797 14.4875C24.4797 13.8937 24.3 13.4068 23.9406 13.0266C23.5812 12.6463 23.1021 12.4562 22.5031 12.4562C21.7843 12.4562 21.2245 12.662 20.8234 13.0734C20.4276 13.4797 20.2297 14.0474 20.2297 14.7766H18.7843C18.7843 13.7297 19.1203 12.8833 19.7922 12.2375C20.4692 11.5917 21.3729 11.2687 22.5031 11.2687C23.5604 11.2687 24.3963 11.5474 25.0109 12.1047C25.6255 12.6568 25.9328 13.3937 25.9328 14.3156C25.9328 15.4354 25.2192 16.7687 23.7922 18.3156L20.7453 21.6203H26.4562V22.8Z" fill="#555770"/>
        <path d="M17.5 32.4274H15.6171L15.246 33.4H14.289L16.1289 28.8492H17L18.832 33.4H17.871L17.5 32.4274ZM15.8945 31.7047H17.2226L16.5585 29.9781L15.8945 31.7047ZM20.332 33.4V28.8492H22.0156C22.5937 28.8492 23.0351 28.9573 23.3398 29.1735C23.6471 29.387 23.8007 29.6969 23.8007 30.1031C23.8007 30.3089 23.7421 30.4977 23.625 30.6696C23.5104 30.8388 23.3346 30.969 23.0976 31.0602C23.3476 31.1201 23.5455 31.2438 23.6914 31.4313C23.8372 31.6162 23.9101 31.8375 23.9101 32.0953C23.9101 32.5198 23.763 32.844 23.4687 33.068C23.1744 33.2893 22.7395 33.4 22.164 33.4H20.332ZM21.2812 31.4196V32.6422H22.1718C22.4375 32.6422 22.6354 32.5875 22.7656 32.4781C22.8958 32.3662 22.9609 32.2255 22.9609 32.0563C22.9609 31.6448 22.7265 31.4326 22.2578 31.4196H21.2812ZM21.2812 30.7555H22.1093C22.3463 30.7503 22.5286 30.7008 22.6562 30.6071C22.7864 30.5133 22.8515 30.3766 22.8515 30.1969C22.8515 29.9912 22.7838 29.8427 22.6484 29.7516C22.5156 29.6604 22.3177 29.6149 22.0546 29.6149H21.2812V30.7555ZM29.5039 31.8844C29.4596 32.3818 29.2643 32.7698 28.9179 33.0485C28.5742 33.3245 28.1197 33.4625 27.5546 33.4625C26.9401 33.4625 26.4531 33.2672 26.0937 32.8766C25.7343 32.486 25.5546 31.943 25.5546 31.2477V30.9821C25.5546 30.542 25.6367 30.1565 25.8007 29.8258C25.9648 29.4925 26.2005 29.236 26.5078 29.0563C26.8151 28.8766 27.1718 28.7867 27.5781 28.7867C28.1354 28.7867 28.5833 28.9287 28.9218 29.2125C29.2604 29.4964 29.4557 29.8909 29.5078 30.3961H28.5585C28.5273 30.1045 28.4296 29.8909 28.2656 29.7555C28.1041 29.6175 27.875 29.5485 27.5781 29.5485C26.8619 29.5485 26.5039 30.0302 26.5039 30.9938V31.275C26.5039 31.7568 26.5911 32.1162 26.7656 32.3531C26.9401 32.5875 27.2031 32.7047 27.5546 32.7047C27.8671 32.7047 28.1041 32.6409 28.2656 32.5133C28.427 32.3857 28.5247 32.1761 28.5585 31.8844H29.5039Z" fill="#555770"/>
    </symbol>
    <symbol viewBox="0 0 44 44" width="44" height="44" fill="none" id="button-3" xmlns="http://www.w3.org/2000/svg">
        <circle cx="22" cy="22" r="22" fill="var(--key-color)"/>
        <path d="M21.1047 16.4094H22.1906C22.8729 16.3989 23.4093 16.2193 23.8 15.8703C24.1906 15.5213 24.3859 15.05 24.3859 14.4562C24.3859 13.1229 23.7218 12.4562 22.3937 12.4562C21.7687 12.4562 21.2687 12.6359 20.8937 12.9953C20.5239 13.3495 20.339 13.8208 20.339 14.4094H18.8937C18.8937 13.5083 19.2218 12.7609 19.8781 12.1672C20.5396 11.5682 21.3781 11.2687 22.3937 11.2687C23.4666 11.2687 24.3078 11.5526 24.9172 12.1203C25.5265 12.688 25.8312 13.4771 25.8312 14.4875C25.8312 14.9823 25.6698 15.4614 25.3468 15.925C25.0291 16.3885 24.5942 16.7349 24.0422 16.9641C24.6672 17.162 25.1489 17.4901 25.4875 17.9484C25.8312 18.4068 26.0031 18.9667 26.0031 19.6281C26.0031 20.6489 25.6698 21.4588 25.0031 22.0578C24.3364 22.6568 23.4692 22.9562 22.4015 22.9562C21.3338 22.9562 20.464 22.6672 19.7922 22.0891C19.1255 21.5109 18.7922 20.7479 18.7922 19.8H20.2453C20.2453 20.3989 20.4406 20.8781 20.8312 21.2375C21.2218 21.5969 21.7453 21.7766 22.4015 21.7766C23.0995 21.7766 23.6333 21.5943 24.0031 21.2297C24.3729 20.8651 24.5578 20.3417 24.5578 19.6594C24.5578 18.9979 24.3547 18.4901 23.9484 18.1359C23.5422 17.7818 22.9562 17.5995 22.1906 17.5891H21.1047V16.4094Z" fill="#555770"/>
        <path d="M15.9485 33.4V28.8492H17.429C17.856 28.8492 18.2375 28.9391 18.5735 29.1188C18.912 29.2985 19.175 29.5524 19.3625 29.8805C19.55 30.206 19.6464 30.5758 19.6516 30.9899V31.2281C19.6516 31.6526 19.5579 32.0302 19.3704 32.361C19.1855 32.6917 18.9211 32.9482 18.5774 33.1305C18.2362 33.3102 17.8469 33.4 17.4094 33.4H15.9485ZM16.8977 29.6149V32.6422H17.4055C18.2571 32.6422 18.6907 32.1891 18.7063 31.2828V31.0211C18.7063 30.1045 18.3014 29.6357 17.4915 29.6149H16.8977ZM24.3352 31.4313H22.3743V32.6422H24.6711V33.4H21.425V28.8492H24.6594V29.6149H22.3743V30.6696H24.3352V31.4313ZM29.1946 31.5446H27.2493V33.4H26.3V28.8492H29.4563V29.6149H27.2493V30.7828H29.1946V31.5446Z" fill="#555770"/>
    </symbol>
    <symbol viewBox="0 0 44 44" width="44" height="44" fill="none" id="button-4" xmlns="http://www.w3.org/2000/svg">
        <circle cx="22" cy="22" r="22" fill="var(--key-color)"/>
        <path d="M25.1047 18.9797H26.6828V20.1594H25.1047V22.8H23.6515V20.1594H18.4718V19.3078L23.5656 11.425H25.1047V18.9797ZM20.1125 18.9797H23.6515V13.4016L23.4797 13.7141L20.1125 18.9797Z" fill="#555770"/>
        <path d="M19.5312 32.8258L19.4414 32.9195C19.0508 33.2815 18.4661 33.4625 17.6875 33.4625C17.0417 33.4625 16.5286 33.2659 16.1484 32.8727C15.7682 32.4794 15.5781 31.9378 15.5781 31.2477V30.9937C15.5781 30.3036 15.7591 29.7633 16.1211 29.3727C16.4831 28.982 16.9818 28.7867 17.6172 28.7867C18.1771 28.7867 18.6198 28.9143 18.9453 29.1695C19.2708 29.4221 19.4661 29.7984 19.5312 30.2984H18.6055C18.5586 30.038 18.4557 29.8479 18.2969 29.7281C18.1406 29.6083 17.9219 29.5484 17.6406 29.5484C16.901 29.5484 16.5312 30.0367 16.5312 31.0133V31.2633C16.5312 31.7398 16.6354 32.0992 16.8437 32.3414C17.0521 32.5836 17.3489 32.7047 17.7344 32.7047C18.1198 32.7047 18.4036 32.6305 18.5859 32.482V31.7008H17.6133V31.0094H19.5312V32.8258ZM25.3047 33.4H24.3555V31.5445H22.3086V33.4H21.3594V28.8492H22.3086V30.7828H24.3555V28.8492H25.3047V33.4ZM28.2305 33.4H27.2851V28.8492H28.2305V33.4Z" fill="#555770"/>
    </symbol>
    <symbol viewBox="0 0 44 44" width="44" height="44" fill="none" id="button-5" xmlns="http://www.w3.org/2000/svg">
        <circle cx="22" cy="22" r="22" fill="var(--key-color)"/>
        <path d="M19.6672 17.0969L20.2453 11.425H26.0734V12.7609H21.4718L21.1281 15.8625C21.6854 15.5344 22.3182 15.3703 23.0265 15.3703C24.063 15.3703 24.8859 15.7141 25.4953 16.4016C26.1047 17.0838 26.4093 18.0083 26.4093 19.175C26.4093 20.3469 26.0916 21.2713 25.4562 21.9484C24.826 22.6203 23.9432 22.9562 22.8078 22.9562C21.8026 22.9562 20.9823 22.6776 20.3468 22.1203C19.7114 21.563 19.3495 20.7922 19.2609 19.8078H20.6281C20.7166 20.4588 20.9484 20.951 21.3234 21.2844C21.6984 21.6125 22.1932 21.7766 22.8078 21.7766C23.4797 21.7766 24.0057 21.5474 24.3859 21.0891C24.7713 20.6307 24.964 19.9979 24.964 19.1906C24.964 18.4302 24.7557 17.8208 24.339 17.3625C23.9276 16.8989 23.3781 16.6672 22.6906 16.6672C22.0604 16.6672 21.5656 16.8052 21.2062 17.0812L20.8234 17.3937L19.6672 17.0969Z" fill="#555770"/>
        <path d="M17.4805 28.8492H18.4297V31.9742C18.4297 32.4273 18.2813 32.7893 17.9844 33.0602C17.6902 33.3284 17.3112 33.4625 16.8477 33.4625C16.3217 33.4625 15.9115 33.3375 15.6172 33.0875C15.3256 32.8375 15.1797 32.4846 15.1797 32.0289H16.1329C16.1329 32.4794 16.3711 32.7047 16.8477 32.7047C17.043 32.7047 17.1967 32.6435 17.3086 32.5211C17.4232 32.3987 17.4805 32.2164 17.4805 31.9742V28.8492ZM21.8125 31.5445L21.2852 32.0562V33.4H20.336V28.8492H21.2852V30.8609L21.7149 30.3375L23.0235 28.8492H24.1954L22.4571 30.8844L24.2813 33.4H23.1485L21.8125 31.5445ZM26.6446 32.6422H28.8125V33.4H25.6954V28.8492H26.6446V32.6422Z" fill="#555770"/>
    </symbol>
    <symbol viewBox="0 0 44 44" width="44" height="44" fill="none" id="button-6" xmlns="http://www.w3.org/2000/svg">
        <circle cx="22" cy="22" r="22" fill="var(--key-color)"/>
        <path d="M24.675 11.4172V12.6437H24.4093C23.2843 12.6646 22.3885 12.9979 21.7218 13.6437C21.0552 14.2896 20.6698 15.1984 20.5656 16.3703C21.1646 15.6828 21.9823 15.3391 23.0187 15.3391C24.0083 15.3391 24.7974 15.688 25.3859 16.3859C25.9797 17.0838 26.2765 17.9849 26.2765 19.0891C26.2765 20.2609 25.9562 21.1984 25.3156 21.9016C24.6802 22.6047 23.826 22.9562 22.7531 22.9562C21.6646 22.9562 20.7817 22.5396 20.1047 21.7062C19.4276 20.8677 19.089 19.7896 19.089 18.4719V17.9172C19.089 15.8234 19.5343 14.2245 20.425 13.1203C21.3208 12.0109 22.6515 11.4432 24.4172 11.4172H24.675ZM22.7765 16.5422C22.2817 16.5422 21.826 16.6906 21.4093 16.9875C20.9927 17.2844 20.7036 17.6568 20.5422 18.1047V18.6359C20.5422 19.5734 20.7531 20.3286 21.175 20.9016C21.5968 21.4745 22.1229 21.7609 22.7531 21.7609C23.4041 21.7609 23.9146 21.5213 24.2843 21.0422C24.6593 20.563 24.8468 19.9354 24.8468 19.1594C24.8468 18.3781 24.6567 17.7479 24.2765 17.2687C23.9015 16.7844 23.4015 16.5422 22.7765 16.5422Z" fill="#555770"/>
        <path d="M14.875 28.8492L16.1914 32.1422L17.4961 28.8492H18.7383V33.4H17.7929V32.1695L17.8906 29.943L16.5156 33.4H15.8594L14.4883 29.9625L14.5859 32.1695V33.4H13.6406V28.8492H14.875ZM24.6054 33.4H23.6601L21.6133 30.2945V33.4H20.664V28.8492H21.6133L23.6601 31.9586V28.8492H24.6054V33.4ZM30.5039 31.2281C30.5039 31.9156 30.3151 32.4599 29.9375 32.8609C29.5625 33.262 29.0664 33.4625 28.4492 33.4625C27.8346 33.4625 27.3359 33.262 26.9531 32.8609C26.5703 32.4573 26.3789 31.9065 26.3789 31.2086V31.0289C26.3789 30.581 26.4648 30.1865 26.6367 29.8453C26.8112 29.5016 27.0547 29.2398 27.3672 29.0602C27.6797 28.8779 28.0377 28.7867 28.4414 28.7867C29.0664 28.7867 29.5664 28.9911 29.9414 29.4C30.3164 29.8062 30.5039 30.357 30.5039 31.0523V31.2281ZM29.5586 31.0211C29.5586 30.5445 29.4609 30.1812 29.2656 29.9312C29.0703 29.6812 28.7955 29.5562 28.4414 29.5562C28.0924 29.5562 27.819 29.6812 27.6211 29.9312C27.4232 30.1812 27.3242 30.5445 27.3242 31.0211V31.2281C27.3242 31.6917 27.4232 32.0536 27.6211 32.3141C27.8216 32.5719 28.0976 32.7008 28.4492 32.7008C28.8034 32.7008 29.0768 32.5745 29.2695 32.3219C29.4622 32.0667 29.5586 31.7021 29.5586 31.2281V31.0211Z" fill="#555770"/>
    </symbol>
    <symbol viewBox="0 0 44 44" width="44" height="44" fill="none" id="button-7" xmlns="http://www.w3.org/2000/svg">
        <circle cx="22" cy="22" r="22" fill="var(--key-color)"/>
        <path d="M26.3468 12.2375L21.6359 22.8H20.1203L24.8156 12.6125H18.6593V11.425H26.3468V12.2375Z" fill="#555770"/>
        <path d="M13.5891 31.8023V33.4H12.6398V28.8492H14.5344C15.0865 28.8492 15.5266 28.9885 15.8547 29.2672C16.1854 29.5432 16.3508 29.9065 16.3508 30.357C16.3508 30.7971 16.1932 31.1461 15.8781 31.4039C15.5656 31.6617 15.1333 31.7945 14.5812 31.8023H13.5891ZM13.5891 31.0367H14.5344C14.8052 31.0367 15.0174 30.9794 15.1711 30.8648C15.3273 30.7503 15.4055 30.5836 15.4055 30.3648C15.4055 30.1383 15.326 29.9573 15.1672 29.8219C15.0109 29.6838 14.8013 29.6148 14.5383 29.6148H13.5891V31.0367ZM22.0305 31.2281C22.0305 31.6526 21.9589 32.0224 21.8156 32.3375C21.6724 32.65 21.4719 32.9 21.2141 33.0875L22.0227 33.6812L21.4094 34.2125L20.3703 33.4273C20.2401 33.4508 20.1073 33.4625 19.9719 33.4625C19.5708 33.4625 19.2128 33.3727 18.8977 33.193C18.5826 33.0107 18.3391 32.7529 18.1672 32.4195C17.9953 32.0836 17.9081 31.6943 17.9055 31.2516V31.0289C17.9055 30.5836 17.9901 30.1917 18.1594 29.8531C18.3286 29.512 18.5695 29.249 18.882 29.0641C19.1971 28.8792 19.5578 28.7867 19.9641 28.7867C20.5865 28.7867 21.0865 28.9898 21.4641 29.3961C21.8417 29.8023 22.0305 30.3544 22.0305 31.0523V31.2281ZM21.0891 31.0211C21.0891 30.5445 20.9901 30.1812 20.7922 29.9312C20.5969 29.6812 20.3208 29.5562 19.9641 29.5562C19.6151 29.5562 19.3417 29.6838 19.1437 29.9391C18.9484 30.1917 18.8508 30.5549 18.8508 31.0289V31.2281C18.8508 31.6865 18.9484 32.0471 19.1437 32.3102C19.3417 32.5706 19.6177 32.7008 19.9719 32.7008C20.3286 32.7008 20.6034 32.5745 20.7961 32.3219C20.9914 32.0667 21.0891 31.7021 21.0891 31.2281V31.0211ZM25.6398 31.7398H24.7687V33.4H23.8195V28.8492H25.6008C26.1685 28.8492 26.6086 28.969 26.9211 29.2086C27.2336 29.4456 27.3898 29.7854 27.3898 30.2281C27.3898 30.8401 27.0969 31.2646 26.5109 31.5016L27.5812 33.357V33.4H26.5656L25.6398 31.7398ZM24.7687 30.982H25.6008C25.882 30.982 26.093 30.9208 26.2336 30.7984C26.3742 30.6734 26.4445 30.5094 26.4445 30.3062C26.4445 30.0953 26.3755 29.9273 26.2375 29.8023C26.1021 29.6773 25.8898 29.6148 25.6008 29.6148H24.7687V30.982ZM31.7258 32.2047C31.7258 32.0328 31.6581 31.8961 31.5227 31.7945C31.3872 31.6904 31.1203 31.5888 30.7219 31.4898C30.326 31.3909 30.0135 31.2776 29.7844 31.15C29.5552 31.0224 29.3859 30.874 29.2766 30.7047C29.1698 30.5328 29.1164 30.3271 29.1164 30.0875C29.1164 29.7073 29.2766 29.3961 29.5969 29.1539C29.9172 28.9091 30.3312 28.7867 30.8391 28.7867C31.3859 28.7867 31.8247 28.9169 32.1555 29.1773C32.4862 29.4378 32.6516 29.7763 32.6516 30.193H31.7023C31.7023 29.982 31.6242 29.8167 31.468 29.6969C31.3117 29.5745 31.1021 29.5133 30.8391 29.5133C30.5917 29.5133 30.3964 29.5641 30.2531 29.6656C30.1099 29.7646 30.0383 29.8974 30.0383 30.0641C30.0383 30.2151 30.1112 30.3401 30.257 30.4391C30.4055 30.538 30.6659 30.6331 31.0383 30.7242C31.6138 30.8648 32.0266 31.051 32.2766 31.2828C32.5266 31.5146 32.6516 31.8154 32.6516 32.1852C32.6516 32.5836 32.4901 32.8961 32.1672 33.1227C31.8443 33.3492 31.4172 33.4625 30.8859 33.4625C30.5266 33.4625 30.1971 33.4026 29.8977 33.2828C29.6008 33.1604 29.3703 32.9885 29.2062 32.7672C29.0422 32.5458 28.9602 32.288 28.9602 31.9937H29.9133C29.9133 32.4937 30.2466 32.7437 30.9133 32.7437C31.1659 32.7437 31.3638 32.6956 31.507 32.5992C31.6529 32.5029 31.7258 32.3713 31.7258 32.2047Z" fill="#555770"/>
    </symbol>
    <symbol viewBox="0 0 44 44" width="44" height="44" fill="none" id="button-8" xmlns="http://www.w3.org/2000/svg">
        <circle cx="22" cy="22" r="22" fill="var(--key-color)"/>
        <path d="M25.9015 14.3937C25.9015 14.9614 25.7505 15.4667 25.4484 15.9094C25.1515 16.3521 24.7479 16.6984 24.2375 16.9484C24.8312 17.2036 25.3 17.576 25.6437 18.0656C25.9927 18.5552 26.1672 19.1099 26.1672 19.7297C26.1672 20.7141 25.8338 21.4979 25.1672 22.0812C24.5057 22.6646 23.6333 22.9562 22.55 22.9562C21.4562 22.9562 20.5786 22.6646 19.9172 22.0812C19.2609 21.4927 18.9328 20.7088 18.9328 19.7297C18.9328 19.1151 19.0995 18.5604 19.4328 18.0656C19.7713 17.5708 20.2375 17.1958 20.8312 16.9406C20.326 16.6906 19.9276 16.3443 19.6359 15.9016C19.3442 15.4588 19.1984 14.9562 19.1984 14.3937C19.1984 13.4354 19.5057 12.675 20.1203 12.1125C20.7349 11.55 21.5448 11.2687 22.55 11.2687C23.55 11.2687 24.3573 11.55 24.9718 12.1125C25.5916 12.675 25.9015 13.4354 25.9015 14.3937ZM24.7218 19.6984C24.7218 19.063 24.5187 18.5448 24.1125 18.1437C23.7114 17.7427 23.1854 17.5422 22.5343 17.5422C21.8833 17.5422 21.3599 17.7401 20.964 18.1359C20.5734 18.5318 20.3781 19.0526 20.3781 19.6984C20.3781 20.3443 20.5682 20.8521 20.9484 21.2219C21.3338 21.5917 21.8677 21.7766 22.55 21.7766C23.2271 21.7766 23.7583 21.5917 24.1437 21.2219C24.5291 20.8469 24.7218 20.3391 24.7218 19.6984ZM22.55 12.4562C21.9823 12.4562 21.5213 12.6333 21.1672 12.9875C20.8182 13.3364 20.6437 13.813 20.6437 14.4172C20.6437 14.9953 20.8156 15.4641 21.1593 15.8234C21.5083 16.1776 21.9718 16.3547 22.55 16.3547C23.1281 16.3547 23.589 16.1776 23.9328 15.8234C24.2817 15.4641 24.4562 14.9953 24.4562 14.4172C24.4562 13.8391 24.2765 13.3677 23.9172 13.0031C23.5578 12.6385 23.1021 12.4562 22.55 12.4562Z" fill="#555770"/>
        <path d="M18.4687 29.6148H16.9609V33.4H16.0117V29.6148H14.5234V28.8492H18.4687V29.6148ZM23.7343 28.8492V31.8453C23.7343 32.3401 23.5664 32.7333 23.2304 33.025C22.8971 33.3167 22.4453 33.4625 21.875 33.4625C21.3046 33.4625 20.8528 33.3193 20.5195 33.0328C20.1861 32.7437 20.0195 32.3479 20.0195 31.8453V28.8492H20.9609V31.8492C20.9609 32.1487 21.0429 32.3661 21.207 32.5016C21.371 32.637 21.5937 32.7047 21.875 32.7047C22.4713 32.7047 22.7747 32.4286 22.7851 31.8766V28.8492H23.7343ZM27.2968 32.1812L27.371 32.482L27.4414 32.1891L28.5742 28.8492H29.5781L27.8515 33.4H26.8906L25.1679 28.8492H26.1718L27.2968 32.1812Z" fill="#555770"/>
    </symbol>
    <symbol viewBox="0 0 44 44" width="44" height="44" fill="none" id="button-9" xmlns="http://www.w3.org/2000/svg">
        <circle cx="22" cy="22" r="22" fill="var(--key-color)"/>
        <path d="M24.5422 17.8C24.2401 18.1594 23.8781 18.4484 23.4562 18.6672C23.0396 18.8859 22.5812 18.9953 22.0812 18.9953C21.425 18.9953 20.8521 18.8338 20.3625 18.5109C19.8781 18.188 19.5031 17.7349 19.2375 17.1516C18.9718 16.563 18.839 15.9146 18.839 15.2062C18.839 14.4458 18.9823 13.7609 19.2687 13.1516C19.5604 12.5422 19.9718 12.076 20.5031 11.7531C21.0343 11.4302 21.6541 11.2687 22.3625 11.2687C23.4875 11.2687 24.3729 11.6906 25.0187 12.5344C25.6698 13.3729 25.9953 14.5187 25.9953 15.9719V16.3937C25.9953 18.6073 25.5578 20.2245 24.6828 21.2453C23.8078 22.2609 22.4875 22.7818 20.7218 22.8078H20.4406V21.5891H20.7453C21.938 21.5682 22.8547 21.2583 23.4953 20.6594C24.1359 20.0552 24.4849 19.1021 24.5422 17.8ZM22.3156 17.8C22.8 17.8 23.2453 17.6516 23.6515 17.3547C24.063 17.0578 24.3625 16.6906 24.55 16.2531V15.675C24.55 14.7271 24.3442 13.9562 23.9328 13.3625C23.5213 12.7687 23.0005 12.4719 22.3703 12.4719C21.7349 12.4719 21.2245 12.7167 20.839 13.2062C20.4536 13.6906 20.2609 14.3312 20.2609 15.1281C20.2609 15.9042 20.4458 16.5448 20.8156 17.05C21.1906 17.55 21.6906 17.8 22.3156 17.8Z" fill="#555770"/>
        <path d="M15.3906 32.232L16.0742 28.8492H16.9961L15.8946 33.4H14.9766L14.1328 30.1461L13.2774 33.4H12.3594L11.2578 28.8492H12.1797L12.8711 32.2398L13.7149 28.8492H14.5508L15.3906 32.232ZM20.2852 30.4234L21.2305 28.8492H22.3399L20.875 31.107L22.4219 33.4H21.2969L20.3008 31.8023L19.3242 33.4H18.2149L19.7188 31.107L18.25 28.8492H19.3516L20.2852 30.4234ZM25.6133 30.9234L26.668 28.8492H27.711L26.0742 31.8219V33.4H25.1289V31.7711L23.5196 28.8492H24.5625L25.6133 30.9234ZM30.2031 32.6422H32.6836V33.4H28.9883V32.8492L31.4102 29.6148H28.9922V28.8492H32.6172V29.3883L30.2031 32.6422Z" fill="#555770"/>
    </symbol>
    <symbol viewBox="0 0 44 44" width="44" height="44" fill="none" id="button-*" xmlns="http://www.w3.org/2000/svg">
        <circle cx="22" cy="22" r="22" fill="var(--key-color)"/>
        <path d="M21.6828 15.1203L19.3234 14.4172L19.6828 13.2375L22.0422 14.1125L21.9718 11.425H23.1672L23.089 14.1516L25.4093 13.2922L25.7687 14.4797L23.3703 15.1906L24.9172 17.3078L23.9484 18.0422L22.4953 15.7922L21.089 17.9875L20.1125 17.2766L21.6828 15.1203Z" fill="#555770"/>
    </symbol>
    <symbol viewBox="0 0 44 44" width="44" height="44" fill="none" id="button-0" xmlns="http://www.w3.org/2000/svg">
        <circle cx="22" cy="22" r="22" fill="var(--key-color)"/>
        <path d="M26.1359 17.9484C26.1359 19.6411 25.8468 20.8989 25.2687 21.7219C24.6906 22.5448 23.787 22.9562 22.5578 22.9562C21.3442 22.9562 20.4458 22.5552 19.8625 21.7531C19.2791 20.9458 18.9771 19.7427 18.9562 18.1437V16.2141C18.9562 14.5422 19.2453 13.3 19.8234 12.4875C20.4015 11.675 21.3078 11.2687 22.5422 11.2687C23.7661 11.2687 24.6672 11.662 25.2453 12.4484C25.8234 13.2297 26.1203 14.438 26.1359 16.0734V17.9484ZM24.6906 15.9719C24.6906 14.7479 24.5187 13.8573 24.175 13.3C23.8312 12.7375 23.287 12.4562 22.5422 12.4562C21.8026 12.4562 21.2635 12.7349 20.925 13.2922C20.5864 13.8495 20.412 14.7062 20.4015 15.8625V18.175C20.4015 19.4042 20.5786 20.313 20.9328 20.9016C21.2922 21.4849 21.8338 21.7766 22.5578 21.7766C23.2713 21.7766 23.8 21.5005 24.1437 20.9484C24.4927 20.3963 24.675 19.5266 24.6906 18.3391V15.9719Z" fill="#555770"/>
        <path d="M22.9993 30.2711H24.4836V31.1383H22.9993V32.8297H22.0774V31.1383H20.5852V30.2711H22.0774V28.6891H22.9993V30.2711Z" fill="#555770"/>
    </symbol>
    <symbol viewBox="0 0 44 44" width="44" height="44" fill="none" id="button-#" xmlns="http://www.w3.org/2000/svg">
        <circle cx="22" cy="22" r="22" fill="var(--key-color)"/>
        <path d="M21.3969 19.5969H19.3344L18.7094 22.8H17.5922L18.2172 19.5969H16.35V18.5266H18.4203L18.9594 15.7609H16.9438V14.675H19.1703L19.811 11.425H20.9281L20.2875 14.675H22.35L22.9906 11.425H24.1156L23.475 14.675H25.0688V15.7609H23.2641L22.725 18.5266H24.4828V19.5969H22.5219L21.8969 22.8H20.7719L21.3969 19.5969ZM19.5375 18.5266H21.6L22.1391 15.7609H20.0766L19.5375 18.5266Z" fill="#555770"/>
    </symbol>
    <symbol width="44" height="44" viewBox="0 0 44 44" fill="none" id="muted" xmlns="http://www.w3.org/2000/svg">
        <path fill-rule="evenodd" clip-rule="evenodd" d="M22.0001 0C34.1503 0 44 9.84978 44 22C44 34.1503 34.1503 44 22.0001 44C9.84972 44 0 34.1503 0 22C0 9.84978 9.84972 0 22.0001 0Z" fill="var(--muted-color)"/>
        <path fill-rule="evenodd" clip-rule="evenodd" d="M18.8 18.2142V20.8C18.8 22.4569 20.1431 23.8 21.8 23.8C22.5229 23.8 23.1862 23.5443 23.7041 23.1184L25.1224 24.5366C24.2391 25.3225 23.0753 25.8 21.8 25.8C19.0386 25.8 16.8 23.5614 16.8 20.8V19.8C16.8 19.2477 16.3523 18.8 15.8 18.8C15.2477 18.8 14.8 19.2477 14.8 19.8V20.8C14.8 24.3273 17.4089 27.2453 20.8024 27.7295C20.8008 27.7528 20.8 27.7763 20.8 27.8V29.8039H18.8C18.2477 29.8039 17.8 30.2516 17.8 30.8039C17.8 31.3562 18.2477 31.8039 18.8 31.8039H24.8C25.3523 31.8039 25.8 31.3562 25.8 30.8039C25.8 30.2516 25.3523 29.8039 24.8 29.8039H22.8V27.8C22.8 27.7763 22.7992 27.7528 22.7975 27.7295C24.23 27.5251 25.5227 26.887 26.5383 25.9525L28.0929 27.5071C28.4834 27.8976 29.1166 27.8976 29.5071 27.5071C29.8976 27.1166 29.8976 26.4834 29.5071 26.0929L16.5071 13.0929C16.1166 12.7024 15.4834 12.7024 15.0929 13.0929C14.7024 13.4834 14.7024 14.1166 15.0929 14.5071L18.8 18.2142ZM20.8 20.2142V20.8C20.8 21.3523 21.2477 21.8 21.8 21.8C21.9695 21.8 22.1292 21.7578 22.2691 21.6833L20.8 20.2142Z" fill="white"/>
        <path d="M22.8 17.3858V14.8C22.8 14.2477 22.3523 13.8 21.8 13.8C21.2477 13.8 20.8 14.2477 20.8 14.8V15.3858L19.0389 13.6247C19.4961 12.552 20.5602 11.8 21.8 11.8C23.4568 11.8 24.8 13.1431 24.8 14.8V19.3858L22.8 17.3858Z" fill="white"/>
        <path d="M28.439 23.0248L26.7695 21.3553C26.7896 21.173 26.8 20.9877 26.8 20.8V19.8C26.8 19.2477 27.2477 18.8 27.8 18.8C28.3523 18.8 28.8 19.2477 28.8 19.8V20.8C28.8 21.5778 28.6731 22.3259 28.439 23.0248Z" fill="white"/>
    </symbol>
    <symbol width="44" height="44" viewBox="0 0 44 44" fill="none" id="unmuted" xmlns="http://www.w3.org/2000/svg">
        <path fill-rule="evenodd" clip-rule="evenodd" d="M22.0001 0C34.1503 0 44 9.84978 44 22C44 34.1503 34.1503 44 22.0001 44C9.84972 44 0 34.1503 0 22C0 9.84978 9.84972 0 22.0001 0Z" fill="var(--unmuted-color)"/>
        <path fill-rule="evenodd" clip-rule="evenodd" d="M19.0002 18.4142V21C19.0002 22.6569 20.3433 24 22.0002 24C22.7231 24 23.3864 23.7443 23.9043 23.3184L25.3226 24.7366C24.4393 25.5225 23.2755 26 22.0002 26C19.2388 26 17.0002 23.7614 17.0002 21V20C17.0002 19.4477 16.5525 19 16.0002 19C15.4479 19 15.0002 19.4477 15.0002 20V21C15.0002 24.5273 17.6091 27.4453 21.0026 27.9295C21.001 27.9528 21.0002 27.9763 21.0002 28V30.0039H19.0002C18.4479 30.0039 18.0002 30.4516 18.0002 31.0039C18.0002 31.5562 18.4479 32.0039 19.0002 32.0039H25.0002C25.5525 32.0039 26.0002 31.5562 26.0002 31.0039C26.0002 30.4516 25.5525 30.0039 25.0002 30.0039H23.0002V28C23.0002 27.9763 22.9994 27.9528 22.9977 27.9295C24.4302 27.7251 25.7229 27.087 26.7385 26.1525L28.2931 27.7071C28.6836 28.0976 29.3168 28.0976 29.7073 27.7071C30.0978 27.3166 30.0978 26.6834 29.7073 26.2929L16.7073 13.2929C16.3168 12.9024 15.6836 12.9024 15.2931 13.2929C14.9026 13.6834 14.9026 14.3166 15.2931 14.7071L19.0002 18.4142ZM21.0002 20.4142V21C21.0002 21.5523 21.4479 22 22.0002 22C22.1697 22 22.3294 21.9578 22.4693 21.8834L21.0002 20.4142Z" fill="#8E90A6"/>
        <path d="M23.0002 17.5858V15C23.0002 14.4477 22.5525 14 22.0002 14C21.4479 14 21.0002 14.4477 21.0002 15V15.5858L19.2391 13.8247C19.6963 12.752 20.7604 12 22.0002 12C23.657 12 25.0002 13.3431 25.0002 15V19.5858L23.0002 17.5858Z" fill="#8E90A6"/>
        <path d="M28.6392 23.2248L26.9697 21.5553C26.9898 21.373 27.0002 21.1877 27.0002 21V20C27.0002 19.4477 27.4479 19 28.0002 19C28.5525 19 29.0002 19.4477 29.0002 20V21C29.0002 21.7778 28.8733 22.5259 28.6392 23.2248Z" fill="#8E90A6"/>
    </symbol>
    <symbol width="44" height="44" viewBox="0 0 44 44" fill="none" id="decline" xmlns="http://www.w3.org/2000/svg">
        <path fill-rule="evenodd" clip-rule="evenodd" d="M22.0001 0C34.1503 0 44 9.84978 44 22C44 34.1503 34.1503 44 22.0001 44C9.84972 44 0 34.1503 0 22C0 9.84978 9.84972 0 22.0001 0Z" fill="var(--decline-color)"/>
        <path d="M32 22.9671C32.0001 23.1986 31.9145 23.4207 31.7623 23.5843L29.7529 25.7445C29.6007 25.9081 29.3941 26.0001 29.1788 26C28.9634 25.9999 28.7568 25.9079 28.6045 25.7441C27.8922 24.9785 27.0824 24.3547 26.2267 23.8915C25.9625 23.7433 25.7844 23.4531 25.79 23.1135L25.7837 20.3911C23.3257 19.5385 20.6669 19.5316 18.2151 20.389L18.2158 23.1053C18.2159 23.451 18.0379 23.7411 17.7738 23.8892C16.9183 24.352 16.1087 24.9752 15.3969 25.7405C15.2446 25.9042 15.0381 25.9961 14.8227 25.9961C14.6073 25.996 14.4007 25.904 14.2484 25.7402L12.238 23.579C12.0857 23.4152 12.0001 23.1932 12 22.9616C11.9999 22.7301 12.0855 22.508 12.2377 22.3443C14.8261 19.5617 18.3373 17.999 21.9988 18C25.6603 18.001 29.1723 19.5656 31.762 22.3497C31.9143 22.5134 31.9999 22.7355 32 22.9671Z" fill="white"/>
    </symbol>
    <symbol width="44" height="44" viewBox="0 0 44 44" fill="none" id="indicator" xmlns="http://www.w3.org/2000/svg">
        <path fill-rule="evenodd" clip-rule="evenodd" d="M17.5133 29.5914C17.1572 29.2077 17.1528 28.608 17.5539 28.2716C18.0652 27.8428 18.6288 27.4889 19.2301 27.2206C20.1082 26.8287 21.0495 26.627 22 26.627C22.9505 26.627 23.8917 26.8287 24.7699 27.2206C25.3711 27.4889 25.9347 27.8428 26.4461 28.2716C26.8472 28.608 26.8428 29.2077 26.4867 29.5914L23.6195 32.6803C23.4303 32.8842 23.1647 33 22.8866 33H21.1134C20.8352 33 20.5697 32.8842 20.3804 32.6803L17.5133 29.5914Z" fill="var(--low-level-color)"/>
        <path fill-rule="evenodd" clip-rule="evenodd" d="M11.0719 22.6521C10.7158 22.2685 10.7136 21.6726 11.0902 21.3091C12.4633 19.9835 14.0364 18.916 15.7438 18.1541C17.7271 17.269 19.8528 16.8135 21.9995 16.8135C24.1462 16.8135 26.2719 17.269 28.2552 18.1541C29.9626 18.916 31.5357 19.9835 32.9088 21.3091C33.2854 21.6726 33.2832 22.2685 32.9271 22.6521L30.4961 25.2711C30.1005 25.6974 29.4283 25.6938 28.994 25.307C28.1533 24.5585 27.2123 23.9478 26.2012 23.4966C24.8691 22.9021 23.4414 22.5962 21.9995 22.5962C20.5576 22.5962 19.1299 22.9021 17.7978 23.4966C16.7867 23.9478 15.8457 24.5585 15.005 25.307C14.5707 25.6938 13.8985 25.6974 13.5029 25.2711L11.0719 22.6521Z" fill="var(--medium-level-color)"/>
        <path fill-rule="evenodd" clip-rule="evenodd" d="M4.63146 15.7129C4.27536 15.3293 4.27393 14.7344 4.64328 14.3635C6.86689 12.1305 9.44563 10.3429 12.2585 9.08761C15.3469 7.70937 18.6571 7 22 7C25.3429 7 28.6531 7.70937 31.7415 9.08761C34.5544 10.3429 37.1331 12.1305 39.3567 14.3635C39.7261 14.7344 39.7246 15.3293 39.3685 15.7129L36.9376 18.3319C36.5419 18.7582 35.8688 18.7564 35.4516 18.3512C33.7535 16.7017 31.8045 15.3748 29.6875 14.4301C27.2503 13.3425 24.638 12.7827 22 12.7827C19.362 12.7827 16.7497 13.3425 14.3125 14.4301C12.1955 15.3748 10.2465 16.7017 8.54837 18.3512C8.1312 18.7564 7.45808 18.7582 7.06242 18.3319L4.63146 15.7129Z" fill="var(--high-level-color)"/>
    </symbol>
    <symbol width="44" height="44" viewBox="0 0 44 44" fill="none" id="call-button" xmlns="http://www.w3.org/2000/svg">
        <path fill-rule="evenodd" clip-rule="evenodd" d="M22.0001 0C34.1503 0 44 9.84978 44 22C44 34.1503 34.1503 44 22.0001 44C9.84972 44 0 34.1503 0 22C0 9.84978 9.84972 0 22.0001 0Z" fill="var(--call-color)"/>
        <path d="M15.2628 15.3553C15.4177 15.2003 15.6236 15.109 15.835 15.1014L18.6255 15.0005C18.837 14.9929 19.0367 15.0695 19.1808 15.2137C19.3249 15.3578 19.4016 15.5575 19.394 15.769C19.3582 16.7576 19.4827 17.7165 19.7454 18.5988C19.823 18.8747 19.748 19.1879 19.517 19.4112L17.6992 21.2366C18.7736 23.4511 20.5484 25.2342 22.7632 26.3007L24.5807 24.4833C24.812 24.252 25.1253 24.177 25.4012 24.2546C26.2835 24.5173 27.2424 24.6419 28.231 24.6062C28.4425 24.5985 28.6422 24.6752 28.7864 24.8193C28.9305 24.9634 29.0071 25.1632 28.9995 25.3746L28.8985 28.1651C28.8909 28.3765 28.7995 28.5823 28.6446 28.7373C28.4897 28.8922 28.2838 28.9835 28.0724 28.9911C24.4777 29.1211 21.0819 27.8177 18.632 25.3678C16.1821 22.9179 14.8788 19.5221 15.0089 15.9275C15.0165 15.716 15.1079 15.5102 15.2628 15.3553Z" fill="white"/>
    </symbol>
    <symbol width="248" height="4" viewBox="0 0 248 4" fill="none" id="volume-indicator" xmlns="http://www.w3.org/2000/svg">
        <rect width="38" height="4" rx="2" fill="var(--volume-level-1)"/>
        <rect x="42" width="38" height="4" rx="2" fill="var(--volume-level-2)"/>
        <rect x="84" width="38" height="4" rx="2" fill="var(--volume-level-3)"/>
        <rect x="126" width="38" height="4" rx="2" fill="var(--volume-level-4)"/>
        <rect x="168" width="38" height="4" rx="2" fill="var(--volume-level-5)"/>
        <rect x="210" width="38" height="4" rx="2" fill="var(--volume-level-6)"/>
    </symbol>
</svg>