<svg width="41" height="40" viewBox="0 0 41 40" fill="none" xmlns="http://www.w3.org/2000/svg">
<path fill-rule="evenodd" clip-rule="evenodd" d="M20.5 37.9999C10.5589 37.9999 2.5 29.9411 2.5 19.9999C2.5 10.0588 10.5589 1.99994 20.5 1.99994C30.4411 1.99994 38.5 10.0588 38.5 19.9999C38.5 29.9411 30.4411 37.9999 20.5 37.9999ZM22.3 10.9999C22.3 11.9941 21.4941 12.7999 20.5 12.7999C19.5059 12.7999 18.7 11.9941 18.7 10.9999C18.7 10.0058 19.5059 9.19994 20.5 9.19994C21.4941 9.19994 22.3 10.0058 22.3 10.9999ZM20.5 30.7999C19.5059 30.7999 18.7 29.9941 18.7 28.9999V18.1999C18.7 17.2058 19.5059 16.3999 20.5 16.3999C21.4941 16.3999 22.3 17.2058 22.3 18.1999V28.9999C22.3 29.9941 21.4941 30.7999 20.5 30.7999Z" fill="#1890FF"/>
</svg>
