<svg width="40" height="40" viewBox="0 0 40 40" fill="none" xmlns="http://www.w3.org/2000/svg">
<path fill-rule="evenodd" clip-rule="evenodd" d="M20.0001 0C31.0457 0 40 8.95434 40 20C40 31.0457 31.0457 40 20.0001 40C8.95429 40 0 31.0457 0 20C0 8.95434 8.95429 0 20.0001 0Z" fill="#F2F2F5"/>
<path fill-rule="evenodd" clip-rule="evenodd" d="M17 16.4142V19C17 20.6569 18.3431 22 20 22C20.7229 22 21.3862 21.7443 21.9041 21.3184L23.3224 22.7366C22.4391 23.5225 21.2753 24 20 24C17.2386 24 15 21.7614 15 19V18C15 17.4477 14.5523 17 14 17C13.4477 17 13 17.4477 13 18V19C13 22.5273 15.609 25.4453 19.0024 25.9295C19.0008 25.9528 19 25.9763 19 26V28.0039H17C16.4477 28.0039 16 28.4516 16 29.0039C16 29.5562 16.4477 30.0039 17 30.0039H23C23.5523 30.0039 24 29.5562 24 29.0039C24 28.4516 23.5523 28.0039 23 28.0039H21V26C21 25.9763 20.9992 25.9528 20.9975 25.9295C22.43 25.7251 23.7227 25.087 24.7383 24.1525L26.2929 25.7071C26.6834 26.0976 27.3166 26.0976 27.7071 25.7071C28.0976 25.3166 28.0976 24.6834 27.7071 24.2929L14.7071 11.2929C14.3166 10.9024 13.6834 10.9024 13.2929 11.2929C12.9024 11.6834 12.9024 12.3166 13.2929 12.7071L17 16.4142ZM19 18.4142V19C19 19.5523 19.4477 20 20 20C20.1695 20 20.3292 19.9578 20.4691 19.8834L19 18.4142Z" fill="#8E90A6"/>
<path d="M21 15.5858V13C21 12.4477 20.5523 12 20 12C19.4477 12 19 12.4477 19 13V13.5858L17.239 11.8247C17.6962 10.752 18.7603 10 20 10C21.6569 10 23 11.3431 23 13V17.5858L21 15.5858Z" fill="#8E90A6"/>
<path d="M26.639 21.2248L24.9695 19.5553C24.9897 19.373 25 19.1877 25 19V18C25 17.4477 25.4477 17 26 17C26.5523 17 27 17.4477 27 18V19C27 19.7778 26.8732 20.5259 26.639 21.2248Z" fill="#8E90A6"/>
</svg>
