<svg width="18" height="18" viewBox="0 0 18 18" fill="none" xmlns="http://www.w3.org/2000/svg">
<path fill-rule="evenodd" clip-rule="evenodd" d="M18 9C18 13.9706 13.9706 18 9 18C4.02944 18 0 13.9706 0 9C0 4.02944 4.02944 0 9 0C13.9706 0 18 4.02944 18 9ZM7.31348 4.40144C7.79118 4.13812 8.33304 3.99967 8.88454 4C9.62086 4.00546 10.3318 4.25801 10.893 4.71352C11.4542 5.16902 11.83 5.79849 11.9547 6.49189C12.0793 7.1853 11.945 7.89851 11.5751 8.50687C11.2052 9.11523 10.6922 9.58002 10 9.82V10C10 10.5523 9.55228 11 9 11C8.44772 11 8 10.5523 8 10V9C8 8.73479 8.08425 8.48043 8.28053 8.29289C8.47681 8.10535 8.79128 8 9.06886 8C9.34644 8 9.49718 7.92382 9.69346 7.73628C9.88973 7.54875 10 7.2944 10 7.02918C10 6.76396 9.88973 6.46192 9.69346 6.27438C9.49718 6.08685 9.27758 6 9 6C8.5 6 8.21868 6.13809 8 6.5C7.93457 6.61951 7.8185 6.72513 7.70924 6.81052C7.59998 6.89591 7.47378 6.9593 7.33821 6.99688C7.20265 7.03446 7.06053 7.04544 6.9204 7.02918C6.78028 7.01292 6.64504 6.96974 6.52283 6.90225C6.40063 6.83475 6.29398 6.74433 6.20929 6.63644C6.1246 6.52853 6.06364 6.40538 6.03005 6.27438C5.99647 6.1434 5.99097 6.00726 6.01388 5.87418C6.03679 5.7411 6.08763 5.61382 6.16336 5.5C6.4391 5.04366 6.83578 4.66476 7.31348 4.40144ZM10 13C10 13.5523 9.55228 14 9 14C8.44772 14 8 13.5523 8 13C8 12.4477 8.44772 12 9 12C9.55228 12 10 12.4477 10 13Z" fill="#6D747A"/>
</svg>
